<svg width="523" height="306" viewBox="0 0 523 306" fill="none" xmlns="http://www.w3.org/2000/svg">
<g opacity="0.1">
<path d="M376.405 87.4876L261.581 202.595L145.744 88.5059C105.381 48.5305 40.1287 48.8184 0.12016 89.1484L155.841 243.372L187.126 274.356C187.608 274.834 188.094 275.305 188.584 275.772C196.157 282.982 204.64 288.867 213.687 293.409C228.766 300.98 245.411 304.822 262.016 304.859C288.593 304.573 315.189 294.539 335.221 275.125C335.707 274.654 336.189 274.178 336.667 273.696L370.928 239.16L522.029 86.845C481.665 46.8697 416.413 47.1577 376.405 87.4876Z" fill="url(#paint0_linear_1027_643)"/>
<path d="M376.405 87.4876L261.581 202.595L145.744 88.5059C105.381 48.5305 40.1287 48.8184 0.12016 89.1484L155.841 243.372L187.126 274.356C187.608 274.834 188.094 275.305 188.584 275.772C196.157 282.982 204.64 288.867 213.687 293.409C228.766 300.98 245.411 304.822 262.016 304.859C288.593 304.573 315.189 294.539 335.221 275.125C335.707 274.654 336.189 274.178 336.667 273.696L370.928 239.16L522.029 86.845C481.665 46.8697 416.413 47.1577 376.405 87.4876Z" fill="url(#paint1_linear_1027_643)"/>
<path fill-rule="evenodd" clip-rule="evenodd" d="M289.655 47.1577C288.121 37.8309 283.541 26.9411 269.995 25.867C262.987 25.3112 257.487 27.9348 253.273 31.6654C244.937 39.0453 241.632 50.757 241.632 50.757L252.43 57.5897C252.43 57.5897 254.941 41.546 263.124 34.897C265.497 32.9691 268.346 31.831 271.75 32.1028C272.142 32.1341 272.52 32.1829 272.885 32.248C274.041 32.4825 275.422 33.0049 276.909 33.916C279.853 36.0209 281.376 39.6219 282.165 43.1504C282.868 46.2937 282.439 50.7112 282.463 52.6304L289.936 59.4179C289.936 56.8885 290.329 51.2602 289.655 47.1577ZM152.513 64.3968C154.632 66.502 156.821 68.6734 159.065 70.8986C156.63 68.7086 154.434 66.5361 152.513 64.3968ZM291.963 61.2595L282.463 52.6304V61.2918H273.418L264.037 52.9722V61.2918H260.771L256.132 67.0631H264.037V78.0855C263.149 78.973 262.436 79.7399 261.82 80.4013C258.841 83.6018 258.158 84.336 251.106 84.336C254.404 83.2953 256.639 76.1169 256.639 71.8872C256.639 66.4957 250.399 58.4789 240.691 61.3231C229.792 64.2411 234.567 80.9464 238.91 84.336C237.013 88.5269 221.933 92.4768 221.933 92.4768L230.594 98.2989L246.843 90.9415H253.267C253.267 90.9415 243.459 100.766 239.494 102.023C242.605 103.609 247.82 107.278 247.82 107.278C247.82 107.278 260.891 96.7268 264.037 90.9415V105.205L273.453 110.75V97.6842V67.0631H282.463V105.051L291.963 111.092V93.7741V67.0631H293.686L298.324 61.2918H291.963V61.2595Z" fill="#6633CC"/>
<path fill-rule="evenodd" clip-rule="evenodd" d="M152.513 64.3968C154.632 66.502 156.821 68.6734 159.065 70.8986C156.63 68.7086 154.434 66.5361 152.513 64.3968Z" fill="url(#paint2_linear_1027_643)"/>
<path fill-rule="evenodd" clip-rule="evenodd" d="M152.513 64.3968C154.632 66.502 156.821 68.6734 159.065 70.8986C156.63 68.7086 154.434 66.5361 152.513 64.3968Z" fill="#6633CC"/>
<path fill-rule="evenodd" clip-rule="evenodd" d="M291.963 61.2595L282.463 52.6304V61.2918V67.0631V105.051C289.452 103.01 291.708 96.6824 291.963 93.7741V67.0631V61.2918V61.2595Z" fill="#FFF6DC"/>
<path d="M282.463 105.051L291.963 111.092V93.7741C291.708 96.6824 289.452 103.01 282.463 105.051Z" fill="#FFF6DC"/>
<path d="M260.771 61.2918H264.037H273.418H282.463H291.963H298.324L293.686 67.0631H291.963H282.463H273.453H264.037H256.132L260.771 61.2918Z" fill="#FFF6DC"/>
<path d="M239.494 102.023C242.605 103.609 247.82 107.278 247.82 107.278C247.82 107.278 260.891 96.7268 264.037 90.9415C253.405 102.414 241.894 102.089 239.752 102.029C239.64 102.026 239.554 102.023 239.494 102.023Z" fill="#FFF6DC"/>
<path d="M221.933 92.4768L230.594 98.2989L246.843 90.9415C235.295 94.8902 225.425 93.6103 221.933 92.4768Z" fill="#FFF6DC"/>
<path fill-rule="evenodd" clip-rule="evenodd" d="M273.453 61.3231L273.418 61.2918L264.037 52.9722V61.2918V67.0631V78.0855C263.149 78.973 262.436 79.7399 261.82 80.4013C258.841 83.6018 258.158 84.336 251.106 84.336C254.404 83.2953 256.639 76.1169 256.639 71.8872C256.639 66.4957 250.399 58.4789 240.691 61.3231C229.792 64.2411 234.567 80.9464 238.91 84.336C237.013 88.5269 221.933 92.4768 221.933 92.4768C225.425 93.6103 235.295 94.8902 246.843 90.9415H253.267C253.267 90.9415 243.459 100.766 239.494 102.023C239.554 102.023 239.64 102.026 239.752 102.029C241.894 102.089 253.405 102.414 264.037 90.9415V105.205C269.726 103.547 272.685 99.5004 273.453 97.6842V67.0631V61.3231ZM243.207 77.1274C243.547 77.2592 245.978 76.1291 246.843 73.9062C247.707 71.6834 246.873 69.2854 246.338 69.0777C245.803 68.8699 243.567 70.0759 242.703 72.2988C241.838 74.5217 242.703 76.9314 243.207 77.1274Z" fill="#FFF6DC"/>
<path d="M264.037 105.205L273.453 110.75V97.6842C272.685 99.5004 269.726 103.547 264.037 105.205Z" fill="#FFF6DC"/>
<path d="M282.463 52.6304L289.936 59.4179C286.941 45.4529 281.632 36.8098 276.909 33.916C279.853 36.0209 281.376 39.6219 282.165 43.1504C282.868 46.2937 282.439 50.7112 282.463 52.6304Z" fill="#D6D6D6"/>
<path fill-rule="evenodd" clip-rule="evenodd" d="M252.43 57.5897C252.43 57.5897 254.941 41.546 263.124 34.897C265.497 32.9691 268.346 31.831 271.75 32.1028C272.142 32.1341 272.52 32.1829 272.885 32.248C274.458 32.5287 275.787 33.1137 276.909 33.916C281.632 36.8098 286.941 45.4529 289.936 59.4179C289.936 56.8885 290.329 51.2602 289.655 47.1577C288.121 37.8309 283.541 26.9411 269.995 25.867C251.04 28.969 250.387 48.308 252.43 57.5897Z" fill="#FFF6DC"/>
<path d="M241.632 50.757L252.43 57.5897C250.387 48.308 251.04 28.969 269.995 25.867C262.987 25.3112 257.487 27.9348 253.273 31.6654C244.937 39.0453 241.632 50.757 241.632 50.757Z" fill="#D4D4D4"/>
<path fill-rule="evenodd" clip-rule="evenodd" d="M152.513 64.3968C154.632 66.502 156.821 68.6734 159.065 70.8986C200.552 112.022 261.348 171.51 261.348 171.51L302.611 130.711C304.925 128.416 307.049 126.319 309.272 124.123C311.499 121.925 313.826 119.627 316.546 116.931L318.534 114.961C327.257 106.316 333.791 99.8405 341.444 92.1538C350.958 82.3553 367.805 65.0667 367.805 65.0667C367.805 65.0667 375.459 57.5897 367.805 49.8333C350.763 32.5637 313.342 0.0416942 262.026 0.00881761C225.842 -0.0147315 196.809 14.536 176.378 29.3496C166.249 36.6943 158.234 44.1036 152.51 49.8333C147.321 55.0278 147.304 59.2217 152.513 64.3968ZM269.995 25.867C283.541 26.9411 288.121 37.8309 289.655 47.1577C290.329 51.2602 289.936 56.8885 289.936 59.4179L282.463 52.6304C282.439 50.7112 282.868 46.2937 282.165 43.1504C281.376 39.6219 279.853 36.0209 276.909 33.916C275.422 33.0049 274.041 32.4825 272.885 32.248C272.52 32.1829 272.142 32.1341 271.75 32.1028C268.346 31.831 265.497 32.9691 263.124 34.897C254.941 41.546 252.43 57.5897 252.43 57.5897L241.632 50.757C241.632 50.757 244.937 39.0453 253.273 31.6654C257.487 27.9348 262.987 25.3112 269.995 25.867ZM282.463 52.6304L291.963 61.2595V61.2918H298.324L293.686 67.0631H291.963V93.7741V111.092L282.463 105.051V67.0631H273.453V97.6842V110.75L264.037 105.205V90.9415C260.891 96.7268 247.82 107.278 247.82 107.278C247.82 107.278 242.605 103.609 239.494 102.023C243.459 100.766 253.267 90.9415 253.267 90.9415H246.843L230.594 98.2989L221.933 92.4768C221.933 92.4768 237.013 88.5269 238.91 84.336C234.567 80.9464 229.792 64.2411 240.691 61.3231C250.399 58.4789 256.639 66.4957 256.639 71.8872C256.639 76.1169 254.404 83.2953 251.106 84.336C258.158 84.336 258.841 83.6018 261.82 80.4013C262.436 79.7399 263.149 78.973 264.037 78.0855V67.0631H256.132L260.771 61.2918H264.037V52.9722L273.418 61.2918H282.463V52.6304Z" fill="url(#paint3_linear_1027_643)"/>
</g>
<defs>
<linearGradient id="paint0_linear_1027_643" x1="604.697" y1="295.684" x2="366.311" y2="-8.19516" gradientUnits="userSpaceOnUse">
<stop stop-color="#CEA33D"/>
<stop offset="1" stop-color="#6633CC"/>
</linearGradient>
<linearGradient id="paint1_linear_1027_643" x1="29.7768" y1="134.553" x2="379.421" y2="125.794" gradientUnits="userSpaceOnUse">
<stop offset="0.263639" stop-color="#F9B90F"/>
<stop offset="1" stop-color="#DC9320"/>
</linearGradient>
<linearGradient id="paint2_linear_1027_643" x1="170.451" y1="109.711" x2="246.374" y2="131.959" gradientUnits="userSpaceOnUse">
<stop stop-color="#F07730"/>
<stop offset="1" stop-color="#F99F0F"/>
</linearGradient>
<linearGradient id="paint3_linear_1027_643" x1="282.903" y1="102.73" x2="429.712" y2="-4.59201" gradientUnits="userSpaceOnUse">
<stop stop-color="#6633CC"/>
<stop offset="1" stop-color="#29A0AB"/>
</linearGradient>
</defs>
</svg>
