<svg width="240" height="240" viewBox="0 0 240 240" fill="none" xmlns="http://www.w3.org/2000/svg">
<path d="M164.238 100.489L120.037 144.836L75.4453 100.881C59.9073 85.4799 34.7885 85.5908 19.3872 101.129L79.3321 160.547L91.3754 172.484C91.5609 172.668 91.7479 172.85 91.9364 173.029C94.8516 175.807 98.1172 178.074 101.6 179.825C107.404 182.741 113.812 184.221 120.204 184.236C130.435 184.126 140.673 180.26 148.385 172.78C148.572 172.599 148.757 172.415 148.941 172.23L162.13 158.924L220.296 100.241C204.758 84.84 179.639 84.951 164.238 100.489Z" fill="url(#paint0_linear_21_2717)"/>
<path d="M164.238 100.489L120.037 144.836L75.4453 100.881C59.9073 85.4799 34.7885 85.5908 19.3872 101.129L79.3321 160.547L91.3754 172.484C91.5609 172.668 91.7479 172.85 91.9364 173.029C94.8516 175.807 98.1172 178.074 101.6 179.825C107.404 182.741 113.812 184.221 120.204 184.236C130.435 184.126 140.673 180.26 148.385 172.78C148.572 172.599 148.757 172.415 148.941 172.23L162.13 158.924L220.296 100.241C204.758 84.84 179.639 84.951 164.238 100.489Z" fill="url(#paint1_linear_21_2717)"/>
<path fill-rule="evenodd" clip-rule="evenodd" d="M130.88 84.9512C130.29 81.3579 128.527 77.1624 123.312 76.7485C120.615 76.5344 118.497 77.5452 116.875 78.9825C113.666 81.8258 112.394 86.3379 112.394 86.3379L116.551 88.9704C116.551 88.9704 117.517 82.7892 120.667 80.2275C121.581 79.4848 122.678 79.0463 123.988 79.151C124.139 79.1631 124.284 79.1819 124.425 79.207C124.87 79.2973 125.401 79.4986 125.974 79.8496C127.107 80.6605 127.693 82.0479 127.997 83.4073C128.268 84.6183 128.103 86.3203 128.112 87.0597L130.988 89.6747C130.988 88.7002 131.14 86.5318 130.88 84.9512ZM78.0876 91.5929C78.9033 92.404 79.7457 93.2406 80.6098 94.0979C79.6722 93.2541 78.8271 92.4171 78.0876 91.5929ZM131.769 90.3842L128.112 87.0597V90.3967H124.63L121.019 87.1914V90.3967H119.761L117.976 92.6202H121.019V96.8668C120.677 97.2087 120.402 97.5042 120.165 97.759C119.019 98.992 118.756 99.2749 116.041 99.2749C117.31 98.874 118.171 96.1083 118.171 94.4788C118.171 92.4016 115.769 89.3129 112.032 90.4087C107.836 91.533 109.674 97.969 111.346 99.2749C110.616 100.89 104.811 102.411 104.811 102.411L108.145 104.654L114.4 101.82H116.873C116.873 101.82 113.097 105.605 111.571 106.089C112.769 106.7 114.776 108.114 114.776 108.114C114.776 108.114 119.808 104.049 121.019 101.82V107.315L124.644 109.451V104.418V92.6202H128.112V107.256L131.769 109.583V102.911V92.6202H132.432L134.218 90.3967H131.769V90.3842Z" fill="#6633CC"/>
<path fill-rule="evenodd" clip-rule="evenodd" d="M78.0876 91.5929C78.9033 92.404 79.7457 93.2406 80.6098 94.0979C79.6722 93.2541 78.8271 92.4171 78.0876 91.5929Z" fill="url(#paint2_linear_21_2717)"/>
<path fill-rule="evenodd" clip-rule="evenodd" d="M78.0876 91.5929C78.9033 92.404 79.7457 93.2406 80.6098 94.0979C79.6722 93.2541 78.8271 92.4171 78.0876 91.5929Z" fill="#6633CC"/>
<path fill-rule="evenodd" clip-rule="evenodd" d="M131.769 90.3842L128.112 87.0597V90.3967V92.6202V107.256C130.802 106.469 131.671 104.032 131.769 102.911V92.6202V90.3967V90.3842Z" fill="#FFF6DC"/>
<path d="M128.112 107.256L131.769 109.583V102.911C131.671 104.032 130.802 106.469 128.112 107.256Z" fill="#FFF6DC"/>
<path d="M119.761 90.3967H121.019H124.63H128.112H131.769H134.218L132.432 92.6202H131.769H128.112H124.644H121.019H117.976L119.761 90.3967Z" fill="#FFF6DC"/>
<path d="M111.571 106.089C112.769 106.7 114.776 108.114 114.776 108.114C114.776 108.114 119.808 104.049 121.019 101.82C116.926 106.24 112.495 106.115 111.67 106.091C111.627 106.09 111.594 106.089 111.571 106.089Z" fill="#FFF6DC"/>
<path d="M104.811 102.411L108.145 104.654L114.4 101.82C109.954 103.341 106.155 102.848 104.811 102.411Z" fill="#FFF6DC"/>
<path fill-rule="evenodd" clip-rule="evenodd" d="M124.644 90.4087L124.63 90.3967L121.019 87.1914V90.3967V92.6202V96.8668C120.677 97.2087 120.402 97.5042 120.165 97.759C119.019 98.992 118.756 99.2749 116.041 99.2749C117.31 98.874 118.171 96.1083 118.171 94.4788C118.171 92.4016 115.769 89.3129 112.032 90.4087C107.836 91.533 109.674 97.969 111.346 99.2749C110.616 100.89 104.811 102.411 104.811 102.411C106.155 102.848 109.954 103.341 114.4 101.82H116.873C116.873 101.82 113.097 105.605 111.571 106.089C111.594 106.089 111.627 106.09 111.67 106.091C112.495 106.115 116.926 106.24 121.019 101.82V107.315C123.209 106.677 124.348 105.117 124.644 104.418V92.6202V90.4087ZM113 96.4977C113.131 96.5484 114.067 96.1131 114.4 95.2566C114.733 94.4002 114.412 93.4764 114.206 93.3963C114 93.3163 113.139 93.7809 112.806 94.6373C112.473 95.4938 112.806 96.4222 113 96.4977Z" fill="#FFF6DC"/>
<path d="M121.019 107.315L124.644 109.451V104.418C124.348 105.117 123.209 106.677 121.019 107.315Z" fill="#FFF6DC"/>
<path d="M128.112 87.0597L130.988 89.6747C129.836 84.2944 127.792 80.9645 125.974 79.8496C127.107 80.6605 127.693 82.0479 127.997 83.4073C128.268 84.6183 128.103 86.3203 128.112 87.0597Z" fill="#D6D6D6"/>
<path fill-rule="evenodd" clip-rule="evenodd" d="M116.551 88.9704C116.551 88.9704 117.517 82.7892 120.667 80.2275C121.581 79.4848 122.678 79.0463 123.988 79.151C124.139 79.1631 124.284 79.1819 124.425 79.207C125.03 79.3151 125.542 79.5405 125.974 79.8496C127.792 80.9645 129.836 84.2944 130.988 89.6747C130.988 88.7002 131.14 86.5318 130.88 84.9512C130.29 81.3579 128.527 77.1624 123.312 76.7485C116.016 77.9437 115.764 85.3944 116.551 88.9704Z" fill="#FFF6DC"/>
<path d="M112.394 86.3379L116.551 88.9704C115.764 85.3944 116.016 77.9437 123.312 76.7485C120.615 76.5344 118.497 77.5452 116.875 78.9825C113.666 81.8258 112.394 86.3379 112.394 86.3379Z" fill="#D4D4D4"/>
<path fill-rule="evenodd" clip-rule="evenodd" d="M78.0876 91.5929C78.9033 92.404 79.7457 93.2406 80.6098 94.0979C96.5803 109.942 119.983 132.86 119.983 132.86L135.868 117.142C136.759 116.258 137.576 115.45 138.432 114.604C139.289 113.757 140.185 112.871 141.232 111.833L141.997 111.074C145.355 107.743 147.871 105.248 150.817 102.287C154.479 98.5118 160.964 91.851 160.964 91.851C160.964 91.851 163.911 88.9704 160.964 85.9821C154.404 79.3286 139.999 66.7988 120.245 66.7861C106.316 66.7771 95.1393 72.383 87.2745 78.0903C83.3751 80.92 80.2897 83.7746 78.0864 85.9821C76.0887 87.9834 76.0824 89.5991 78.0876 91.5929ZM123.312 76.7485C128.527 77.1624 130.29 81.3579 130.88 84.9512C131.14 86.5318 130.988 88.7002 130.988 89.6747L128.112 87.0597C128.103 86.3203 128.268 84.6183 127.997 83.4073C127.693 82.0479 127.107 80.6605 125.974 79.8496C125.401 79.4986 124.87 79.2973 124.425 79.207C124.284 79.1819 124.139 79.1631 123.988 79.151C122.678 79.0463 121.581 79.4848 120.667 80.2275C117.517 82.7892 116.551 88.9704 116.551 88.9704L112.394 86.3379C112.394 86.3379 113.666 81.8258 116.875 78.9825C118.497 77.5452 120.615 76.5344 123.312 76.7485ZM128.112 87.0597L131.769 90.3842V90.3967H134.218L132.432 92.6202H131.769V102.911V109.583L128.112 107.256V92.6202H124.644V104.418V109.451L121.019 107.315V101.82C119.808 104.049 114.776 108.114 114.776 108.114C114.776 108.114 112.769 106.7 111.571 106.089C113.097 105.605 116.873 101.82 116.873 101.82H114.4L108.145 104.654L104.811 102.411C104.811 102.411 110.616 100.89 111.346 99.2749C109.674 97.969 107.836 91.533 112.032 90.4087C115.769 89.3129 118.171 92.4016 118.171 94.4788C118.171 96.1083 117.31 98.874 116.041 99.2749C118.756 99.2749 119.019 98.992 120.165 97.759C120.402 97.5042 120.677 97.2087 121.019 96.8668V92.6202H117.976L119.761 90.3967H121.019V87.1914L124.63 90.3967H128.112V87.0597Z" fill="url(#paint3_linear_21_2717)"/>
<rect x="2.36984" y="2.36984" width="235.26" height="235.26" rx="117.63" stroke="url(#paint4_linear_21_2717)" stroke-width="4.73968"/>
<defs>
<linearGradient id="paint0_linear_21_2717" x1="252.12" y1="180.701" x2="160.258" y2="63.6993" gradientUnits="userSpaceOnUse">
<stop stop-color="#CEA33D"/>
<stop offset="1" stop-color="#6633CC"/>
</linearGradient>
<linearGradient id="paint1_linear_21_2717" x1="30.8035" y1="118.622" x2="165.399" y2="115.253" gradientUnits="userSpaceOnUse">
<stop offset="0.263639" stop-color="#F9B90F"/>
<stop offset="1" stop-color="#DC9320"/>
</linearGradient>
<linearGradient id="paint2_linear_21_2717" x1="84.9927" y1="109.051" x2="114.223" y2="117.609" gradientUnits="userSpaceOnUse">
<stop stop-color="#F07730"/>
<stop offset="1" stop-color="#F99F0F"/>
</linearGradient>
<linearGradient id="paint3_linear_21_2717" x1="128.281" y1="106.361" x2="184.828" y2="65.0583" gradientUnits="userSpaceOnUse">
<stop stop-color="#6633CC"/>
<stop offset="1" stop-color="#29A0AB"/>
</linearGradient>
<linearGradient id="paint4_linear_21_2717" x1="120" y1="0" x2="120" y2="240" gradientUnits="userSpaceOnUse">
<stop offset="0.235577" stop-color="#F99F0F"/>
<stop offset="0.706731" stop-color="#9D29C6"/>
<stop offset="1" stop-color="#35115F"/>
</linearGradient>
</defs>
</svg>
