<svg width="523" height="306" viewBox="0 0 523 306" fill="none" xmlns="http://www.w3.org/2000/svg">
<g opacity="0.1">
<path d="M376.405 87.4823L261.581 202.589L145.744 88.5005C105.381 48.5252 40.1287 48.813 0.12016 89.143L155.841 243.367L187.126 274.351C187.608 274.828 188.094 275.3 188.584 275.766C196.157 282.977 204.64 288.862 213.687 293.404C228.766 300.975 245.411 304.816 262.016 304.854C288.593 304.568 315.189 294.533 335.221 275.119C335.707 274.649 336.189 274.172 336.667 273.691L370.928 239.155L522.029 86.8397C481.665 46.8644 416.413 47.1523 376.405 87.4823Z" fill="url(#paint0_linear_827_706)"/>
<path d="M376.405 87.4823L261.581 202.589L145.744 88.5005C105.381 48.5252 40.1287 48.813 0.12016 89.143L155.841 243.367L187.126 274.351C187.608 274.828 188.094 275.3 188.584 275.766C196.157 282.977 204.64 288.862 213.687 293.404C228.766 300.975 245.411 304.816 262.016 304.854C288.593 304.568 315.189 294.533 335.221 275.119C335.707 274.649 336.189 274.172 336.667 273.691L370.928 239.155L522.029 86.8397C481.665 46.8644 416.413 47.1523 376.405 87.4823Z" fill="url(#paint1_linear_827_706)"/>
<path fill-rule="evenodd" clip-rule="evenodd" d="M289.655 47.1523C288.121 37.8255 283.541 26.9358 269.995 25.8616C262.987 25.3058 257.487 27.9295 253.273 31.6601C244.937 39.0399 241.632 50.7517 241.632 50.7517L252.43 57.5843C252.43 57.5843 254.941 41.5407 263.124 34.8916C265.497 32.9637 268.346 31.8256 271.75 32.0974C272.142 32.1287 272.52 32.1775 272.885 32.2426C274.041 32.4771 275.422 32.9995 276.909 33.9106C279.853 36.0155 281.376 39.6165 282.165 43.145C282.868 46.2883 282.439 50.7059 282.463 52.625L289.936 59.4126C289.936 56.8832 290.329 51.2548 289.655 47.1523ZM152.513 64.3914C154.632 66.4967 156.821 68.6681 159.065 70.8932C156.63 68.7032 154.434 66.5307 152.513 64.3914ZM291.963 61.2541L282.463 52.625V61.2864H273.418L264.037 52.9668V61.2864H260.771L256.132 67.0577H264.037V78.0802C263.149 78.9677 262.436 79.7345 261.82 80.396C258.841 83.5964 258.158 84.3306 251.106 84.3306C254.404 83.29 256.639 76.1115 256.639 71.8818C256.639 66.4904 250.399 58.4735 240.691 61.3177C229.792 64.2357 234.567 80.941 238.91 84.3306C237.013 88.5216 221.933 92.4714 221.933 92.4714L230.594 98.2935L246.843 90.9361H253.267C253.267 90.9361 243.459 100.76 239.494 102.018C242.605 103.603 247.82 107.272 247.82 107.272C247.82 107.272 260.891 96.7214 264.037 90.9361V105.2L273.453 110.745V97.6788V67.0577H282.463V105.046L291.963 111.086V93.7687V67.0577H293.686L298.324 61.2864H291.963V61.2541Z" fill="#6633CC"/>
<path fill-rule="evenodd" clip-rule="evenodd" d="M152.513 64.3914C154.632 66.4967 156.821 68.6681 159.065 70.8932C156.63 68.7032 154.434 66.5307 152.513 64.3914Z" fill="url(#paint2_linear_827_706)"/>
<path fill-rule="evenodd" clip-rule="evenodd" d="M152.513 64.3914C154.632 66.4967 156.821 68.6681 159.065 70.8932C156.63 68.7032 154.434 66.5307 152.513 64.3914Z" fill="#6633CC"/>
<path fill-rule="evenodd" clip-rule="evenodd" d="M291.963 61.2541L282.463 52.625V61.2864V67.0577V105.046C289.452 103.004 291.708 96.677 291.963 93.7687V67.0577V61.2864V61.2541Z" fill="#FFF6DC"/>
<path d="M282.463 105.046L291.963 111.086V93.7687C291.708 96.677 289.452 103.004 282.463 105.046Z" fill="#FFF6DC"/>
<path d="M260.771 61.2864H264.037H273.418H282.463H291.963H298.324L293.686 67.0577H291.963H282.463H273.453H264.037H256.132L260.771 61.2864Z" fill="#FFF6DC"/>
<path d="M239.494 102.018C242.605 103.603 247.82 107.272 247.82 107.272C247.82 107.272 260.891 96.7214 264.037 90.9361C253.405 102.408 241.894 102.084 239.752 102.023C239.64 102.02 239.554 102.018 239.494 102.018Z" fill="#FFF6DC"/>
<path d="M221.933 92.4714L230.594 98.2935L246.843 90.9361C235.295 94.8848 225.425 93.605 221.933 92.4714Z" fill="#FFF6DC"/>
<path fill-rule="evenodd" clip-rule="evenodd" d="M273.453 61.3177L273.418 61.2864L264.037 52.9668V61.2864V67.0577V78.0802C263.149 78.9677 262.436 79.7345 261.82 80.396C258.841 83.5964 258.158 84.3306 251.106 84.3306C254.404 83.29 256.639 76.1115 256.639 71.8818C256.639 66.4904 250.399 58.4735 240.691 61.3177C229.792 64.2357 234.567 80.941 238.91 84.3306C237.013 88.5216 221.933 92.4714 221.933 92.4714C225.425 93.605 235.295 94.8848 246.843 90.9361H253.267C253.267 90.9361 243.459 100.76 239.494 102.018C239.554 102.018 239.64 102.02 239.752 102.023C241.894 102.084 253.405 102.408 264.037 90.9361V105.2C269.726 103.542 272.685 99.4951 273.453 97.6788V67.0577V61.3177ZM243.207 77.122C243.547 77.2538 245.978 76.1238 246.843 73.9009C247.707 71.678 246.873 69.2801 246.338 69.0723C245.803 68.8645 243.567 70.0705 242.703 72.2934C241.838 74.5163 242.703 76.9261 243.207 77.122Z" fill="#FFF6DC"/>
<path d="M264.037 105.2L273.453 110.745V97.6788C272.685 99.4951 269.726 103.542 264.037 105.2Z" fill="#FFF6DC"/>
<path d="M282.463 52.625L289.936 59.4126C286.941 45.4475 281.632 36.8044 276.909 33.9106C279.853 36.0155 281.376 39.6165 282.165 43.145C282.868 46.2883 282.439 50.7059 282.463 52.625Z" fill="#D6D6D6"/>
<path fill-rule="evenodd" clip-rule="evenodd" d="M252.43 57.5843C252.43 57.5843 254.941 41.5407 263.124 34.8916C265.497 32.9637 268.346 31.8256 271.75 32.0974C272.142 32.1287 272.52 32.1775 272.885 32.2426C274.458 32.5233 275.787 33.1083 276.909 33.9106C281.632 36.8044 286.941 45.4475 289.936 59.4126C289.936 56.8832 290.329 51.2548 289.655 47.1523C288.121 37.8255 283.541 26.9358 269.995 25.8616C251.04 28.9636 250.387 48.3026 252.43 57.5843Z" fill="#FFF6DC"/>
<path d="M241.632 50.7517L252.43 57.5843C250.387 48.3026 251.04 28.9636 269.995 25.8616C262.987 25.3058 257.487 27.9295 253.273 31.6601C244.937 39.0399 241.632 50.7517 241.632 50.7517Z" fill="#D4D4D4"/>
<path fill-rule="evenodd" clip-rule="evenodd" d="M152.513 64.3914C154.632 66.4967 156.821 68.6681 159.065 70.8932C200.552 112.017 261.348 171.504 261.348 171.504L302.611 130.706C304.925 128.41 307.049 126.314 309.272 124.118C311.499 121.919 313.826 119.621 316.546 116.926L318.534 114.956C327.257 106.311 333.791 99.8351 341.444 92.1484C350.958 82.3499 367.805 65.0613 367.805 65.0613C367.805 65.0613 375.459 57.5843 367.805 49.828C350.763 32.5583 313.342 0.0363231 262.026 0.00344651C225.842 -0.0201026 196.809 14.5306 176.378 29.3443C166.249 36.6889 158.234 44.0983 152.51 49.828C147.321 55.0225 147.304 59.2163 152.513 64.3914ZM269.995 25.8616C283.541 26.9358 288.121 37.8255 289.655 47.1523C290.329 51.2548 289.936 56.8832 289.936 59.4126L282.463 52.625C282.439 50.7059 282.868 46.2883 282.165 43.145C281.376 39.6165 279.853 36.0155 276.909 33.9106C275.422 32.9995 274.041 32.4771 272.885 32.2426C272.52 32.1775 272.142 32.1287 271.75 32.0974C268.346 31.8256 265.497 32.9637 263.124 34.8916C254.941 41.5407 252.43 57.5843 252.43 57.5843L241.632 50.7517C241.632 50.7517 244.937 39.0399 253.273 31.6601C257.487 27.9295 262.987 25.3058 269.995 25.8616ZM282.463 52.625L291.963 61.2541V61.2864H298.324L293.686 67.0577H291.963V93.7687V111.086L282.463 105.046V67.0577H273.453V97.6788V110.745L264.037 105.2V90.9361C260.891 96.7214 247.82 107.272 247.82 107.272C247.82 107.272 242.605 103.603 239.494 102.018C243.459 100.76 253.267 90.9361 253.267 90.9361H246.843L230.594 98.2935L221.933 92.4714C221.933 92.4714 237.013 88.5216 238.91 84.3306C234.567 80.941 229.792 64.2357 240.691 61.3177C250.399 58.4735 256.639 66.4904 256.639 71.8818C256.639 76.1115 254.404 83.29 251.106 84.3306C258.158 84.3306 258.841 83.5964 261.82 80.396C262.436 79.7345 263.149 78.9677 264.037 78.0802V67.0577H256.132L260.771 61.2864H264.037V52.9668L273.418 61.2864H282.463V52.625Z" fill="url(#paint3_linear_827_706)"/>
</g>
<defs>
<linearGradient id="paint0_linear_827_706" x1="604.697" y1="295.679" x2="366.311" y2="-8.20053" gradientUnits="userSpaceOnUse">
<stop stop-color="#CEA33D"/>
<stop offset="1" stop-color="#6633CC"/>
</linearGradient>
<linearGradient id="paint1_linear_827_706" x1="29.7768" y1="134.548" x2="379.421" y2="125.788" gradientUnits="userSpaceOnUse">
<stop offset="0.263639" stop-color="#F9B90F"/>
<stop offset="1" stop-color="#DC9320"/>
</linearGradient>
<linearGradient id="paint2_linear_827_706" x1="170.451" y1="109.706" x2="246.374" y2="131.953" gradientUnits="userSpaceOnUse">
<stop stop-color="#F07730"/>
<stop offset="1" stop-color="#F99F0F"/>
</linearGradient>
<linearGradient id="paint3_linear_827_706" x1="282.903" y1="102.724" x2="429.712" y2="-4.59738" gradientUnits="userSpaceOnUse">
<stop stop-color="#6633CC"/>
<stop offset="1" stop-color="#29A0AB"/>
</linearGradient>
</defs>
</svg>
