<svg xmlns="http://www.w3.org/2000/svg" width="63" height="52" viewBox="0 0 63 52" fill="none">
  <g clip-path="url(#clip0_906_1226)">
    <path d="M0.551758 4.62144H16.4785C18.1322 19.9085 24.2847 23.3404 39.0454 18.0075L51.2013 29.8584C54.5043 32.828 53.3807 37.1101 49.831 41.0645L42.2291 48.5235C36.7773 53.0442 32.9934 52.4487 26.8895 50.5974C19.075 48.2272 11.5499 43.7831 4.31429 37.612H0.551758V4.62144Z" fill="white"/>
    <path d="M56.1983 7.68992L65.3796 4.42922V37.6116H59.571C59.8124 33.1273 58.2979 31.376 55.2614 28.4049C49.4372 24.3549 45.781 20.8374 38.7725 13.0605C28.0119 17.9139 23.8693 17.4238 20.7847 9.22437L35.2124 2.51116C38.3576 1.54859 40.2775 1.34708 43.6443 2.51116C49.0212 4.24039 52.0089 5.22712 56.1983 7.68992Z" fill="white"/>
  </g>
  <defs>
    <clipPath id="clip0_906_1226">
      <rect x="0.5" y="0.826065" width="61.9966" height="50.1991" rx="25.0995" fill="white"/>
    </clipPath>
  </defs>
</svg>