<svg xmlns="http://www.w3.org/2000/svg" width="69" height="64" viewBox="0 0 69 64" fill="none">
  <ellipse cx="50.756" cy="22.7912" rx="8.86294" ry="9.77765" transform="rotate(0.203092 50.756 22.7912)" fill="#411F64"/>
  <ellipse cx="26.0629" cy="17.1034" rx="14.099" ry="15.5541" fill="#5E2D91"/>
  <path d="M66.3494 47.6662C66.3656 43.0783 64.7651 38.6725 61.8998 35.4182C59.0346 32.1638 55.1394 30.3275 51.0711 30.313C47.0027 30.2986 43.0946 32.1073 40.2064 35.3413C37.3181 38.5753 35.6864 42.9695 35.6701 47.5575L51.0097 47.6119L66.3494 47.6662Z" fill="#411F64"/>
  <path d="M51.0088 56.5858C51.0088 49.2873 48.4379 42.2878 43.8616 37.1271C39.2853 31.9663 33.0785 29.067 26.6067 29.067C20.1349 29.067 13.9281 31.9663 9.3518 37.1271C4.77552 42.2878 2.20459 49.2873 2.20459 56.5858L26.6067 56.5858H51.0088Z" fill="#5E2D91"/>
</svg>