<svg width="55" height="46" viewBox="0 0 55 46" fill="none" xmlns="http://www.w3.org/2000/svg">
<path d="M36.189 22.9327H44.6414V29.4575C44.6414 33.0564 41.6092 35.9824 37.8795 35.9824H37.0343C36.7011 35.9816 36.371 36.0444 36.0629 36.1671C35.7549 36.2898 35.4751 36.47 35.2394 36.6973C35.0038 36.9247 34.8171 37.1948 34.6899 37.492C34.5628 37.7892 34.4977 38.1077 34.4985 38.4293V43.3229C34.4977 43.6444 34.5628 43.963 34.6899 44.2602C34.8171 44.5574 35.0038 44.8275 35.2394 45.0548C35.4751 45.2822 35.7549 45.4624 36.0629 45.5851C36.371 45.7078 36.7011 45.7705 37.0343 45.7698H37.8795C47.2194 45.7698 54.7844 38.4701 54.7844 29.4576V4.98934C54.7844 2.28764 52.5128 0.0957031 49.7129 0.0957031H36.189C33.3891 0.0957031 31.1175 2.28764 31.1175 4.98934V18.039C31.1175 20.7408 33.3891 22.9327 36.189 22.9327ZM5.76019 22.9327H14.2126V29.4575C14.2126 33.0564 11.1804 35.9824 7.45068 35.9824H6.60549C6.27226 35.9816 5.94216 36.0444 5.63414 36.1671C5.32612 36.2898 5.04626 36.47 4.81063 36.6973C4.575 36.9247 4.38825 37.1948 4.2611 37.492C4.13394 37.7892 4.0689 38.1077 4.0697 38.4293V43.3229C4.0689 43.6444 4.13394 43.963 4.2611 44.2602C4.38825 44.5574 4.575 44.8275 4.81063 45.0548C5.04626 45.2822 5.32612 45.4624 5.63414 45.5851C5.94216 45.7078 6.27226 45.7705 6.60549 45.7698H7.45068C16.7906 45.7698 24.3556 38.4701 24.3556 29.4576V4.98934C24.3556 2.28764 22.084 0.0957031 19.2841 0.0957031H5.76019C2.96031 0.0957031 0.688721 2.28764 0.688721 4.98934V18.039C0.688721 20.7408 2.96031 22.9327 5.76019 22.9327Z" fill="#5E2D91"/>
</svg>
