<svg width="104" height="101" viewBox="0 0 104 101" fill="none" xmlns="http://www.w3.org/2000/svg">
<g clip-path="url(#clip0_772_2476)">
<path d="M59.7655 50.2015L63.1626 60.4567L66.1507 60.6054L67.0306 60.6486L67.4442 61.4353L79.8273 84.9491L79.9808 85.24L80.0079 85.572C80.1605 87.4385 79.3602 89.2454 78.2404 90.7438C77.1041 92.2643 75.5187 93.6373 73.7662 94.6994C70.3696 96.758 65.7318 97.9813 62.183 95.9443L61.7499 95.6962L61.54 95.2361L50.3384 70.7244L49.9737 69.926L50.4428 69.1686L52.4113 65.9936L47.232 56.364L46.4294 54.8704L47.9531 54.1091L57.5838 49.2946L59.1984 48.4873L59.7655 50.2015Z" fill="white" stroke="white" stroke-width="3.21024"/>
<path d="M53.4937 9.71957C66.0601 15.1481 72.1579 29.5822 66.7502 42.1005C61.3425 54.6188 46.6531 60.073 34.0867 54.6445C21.5205 49.2159 15.4225 34.7818 20.8302 22.2636C26.238 9.74541 40.9274 4.29122 53.4937 9.71957Z" stroke="white" stroke-width="9.63073"/>
<path d="M31.329 32.6994L38.1858 42.1254" stroke="white" stroke-width="4.42333" stroke-linecap="round"/>
<path d="M38.1809 42.1266L57.0354 23.2721" stroke="white" stroke-width="4.42333" stroke-linecap="round"/>
</g>
<defs>
<clipPath id="clip0_772_2476">
<rect width="102.728" height="99.5176" fill="white" transform="translate(0.47168 0.988281)"/>
</clipPath>
</defs>
</svg>
