<svg width="55" height="46" viewBox="0 0 55 46" fill="none" xmlns="http://www.w3.org/2000/svg">
<path d="M19.3884 22.8425H10.936V16.3176C10.936 12.7187 13.9682 9.79276 17.6979 9.79276H18.5431C18.8763 9.79353 19.2064 9.73076 19.5145 9.60807C19.8225 9.48537 20.1023 9.30517 20.338 9.0778C20.5736 8.85044 20.7603 8.58039 20.8875 8.28317C21.0146 7.98595 21.0797 7.66743 21.0789 7.34588V2.45224C21.0797 2.1307 21.0146 1.81217 20.8875 1.51495C20.7603 1.21774 20.5736 0.947689 20.338 0.720325C20.1023 0.492958 19.8225 0.312756 19.5145 0.19006C19.2064 0.0673676 18.8763 0.00460052 18.5431 0.00537109H17.6979C8.35797 0.00537109 0.793015 7.30507 0.793015 16.3175V40.7858C0.793015 43.4875 3.0646 45.6794 5.86448 45.6794H19.3884C22.1883 45.6794 24.4599 43.4875 24.4599 40.7858V27.7361C24.4599 25.0344 22.1883 22.8425 19.3884 22.8425ZM49.8172 22.8425H41.3648V16.3176C41.3648 12.7187 44.397 9.79276 48.1267 9.79276H48.9719C49.3051 9.79353 49.6352 9.73076 49.9433 9.60807C50.2513 9.48537 50.5311 9.30517 50.7668 9.0778C51.0024 8.85044 51.1891 8.58039 51.3163 8.28317C51.4434 7.98595 51.5085 7.66743 51.5077 7.34588V2.45224C51.5085 2.1307 51.4434 1.81217 51.3163 1.51495C51.1891 1.21774 51.0024 0.947689 50.7668 0.720325C50.5311 0.492958 50.2513 0.312756 49.9433 0.19006C49.6352 0.0673676 49.3051 0.00460052 48.9719 0.00537109H48.1267C38.7868 0.00537109 31.2218 7.30507 31.2218 16.3175V40.7858C31.2218 43.4875 33.4934 45.6794 36.2933 45.6794H49.8172C52.6171 45.6794 54.8887 43.4875 54.8887 40.7858V27.7361C54.8887 25.0344 52.6171 22.8425 49.8172 22.8425Z" fill="#5E2D91"/>
</svg>
