<svg width="967" height="566" viewBox="0 0 967 566" fill="none" xmlns="http://www.w3.org/2000/svg">
<g opacity="0.1">
<path d="M695.952 161.814L483.648 374.724L269.473 163.697C194.843 89.7556 74.1954 90.2881 0.22168 164.885L288.142 450.149L345.987 507.46C346.878 508.342 347.776 509.215 348.681 510.077C362.683 523.415 378.368 534.3 395.096 542.701C422.976 556.705 453.751 563.811 484.453 563.88C533.594 563.351 582.768 544.79 619.807 508.881C620.705 508.01 621.596 507.129 622.479 506.238L685.826 442.358L965.204 160.625C890.574 86.6837 769.926 87.2163 695.952 161.814Z" fill="url(#paint0_linear_747_1319)"/>
<path d="M695.952 161.814L483.648 374.724L269.473 163.697C194.843 89.7556 74.1954 90.2881 0.22168 164.885L288.142 450.149L345.987 507.46C346.878 508.342 347.776 509.215 348.681 510.077C362.683 523.415 378.368 534.3 395.096 542.701C422.976 556.705 453.751 563.811 484.453 563.88C533.594 563.351 582.768 544.79 619.807 508.881C620.705 508.01 621.596 507.129 622.479 506.238L685.826 442.358L965.204 160.625C890.574 86.6837 769.926 87.2163 695.952 161.814Z" fill="url(#paint1_linear_747_1319)"/>
<path fill-rule="evenodd" clip-rule="evenodd" d="M535.556 87.2164C532.72 69.9649 524.253 49.8224 499.207 47.8355C486.249 46.8075 476.08 51.6604 468.289 58.5608C452.875 72.2112 446.764 93.874 446.764 93.874L466.731 106.512C466.731 106.512 471.372 76.8367 486.502 64.5381C490.889 60.9721 496.158 58.8671 502.452 59.3698C503.176 59.4277 503.875 59.5179 504.55 59.6384C506.687 60.0721 509.241 61.0384 511.991 62.7236C517.434 66.617 520.25 73.2777 521.708 79.8041C523.008 85.6183 522.215 93.7893 522.259 97.339L536.076 109.894C536.076 105.215 536.804 94.8047 535.556 87.2164ZM281.989 119.103C285.907 122.997 289.953 127.013 294.103 131.129C289.6 127.079 285.541 123.06 281.989 119.103ZM539.824 113.3L522.259 97.339V113.36H505.536L488.191 97.9713V113.36H482.151L473.575 124.035H488.191V144.423C486.549 146.064 485.23 147.483 484.091 148.706C478.584 154.626 477.321 155.984 464.281 155.984C470.379 154.059 474.512 140.781 474.512 132.958C474.512 122.985 462.974 108.157 445.025 113.418C424.873 118.815 433.703 149.714 441.732 155.984C438.224 163.736 410.343 171.042 410.343 171.042L426.356 181.811L456.4 168.202H468.277C468.277 168.202 450.144 186.373 442.813 188.7C448.565 191.632 458.207 198.419 458.207 198.419C458.207 198.419 482.373 178.903 488.191 168.202V194.586L505.601 204.841V180.674V124.035H522.259V194.301L539.824 205.473V173.441V124.035H543.01L551.586 113.36H539.824V113.3Z" fill="#6633CC"/>
<path fill-rule="evenodd" clip-rule="evenodd" d="M281.989 119.103C285.907 122.997 289.953 127.013 294.103 131.129C289.6 127.079 285.541 123.06 281.989 119.103Z" fill="url(#paint2_linear_747_1319)"/>
<path fill-rule="evenodd" clip-rule="evenodd" d="M281.989 119.103C285.907 122.997 289.953 127.013 294.103 131.129C289.6 127.079 285.541 123.06 281.989 119.103Z" fill="#6633CC"/>
<path fill-rule="evenodd" clip-rule="evenodd" d="M539.824 113.3L522.259 97.339V113.36V124.035V194.301C535.182 190.524 539.354 178.821 539.824 173.441V124.035V113.36V113.3Z" fill="#FFF6DC"/>
<path d="M522.259 194.301L539.824 205.473V173.441C539.354 178.821 535.182 190.524 522.259 194.301Z" fill="#FFF6DC"/>
<path d="M482.151 113.36H488.191H505.536H522.259H539.824H551.586L543.01 124.035H539.824H522.259H505.601H488.191H473.575L482.151 113.36Z" fill="#FFF6DC"/>
<path d="M442.813 188.7C448.565 191.632 458.207 198.419 458.207 198.419C458.207 198.419 482.373 178.903 488.191 168.202C468.533 189.422 447.25 188.822 443.289 188.71C443.082 188.704 442.922 188.7 442.813 188.7Z" fill="#FFF6DC"/>
<path d="M410.343 171.042L426.356 181.811L456.4 168.202C435.048 175.506 416.799 173.139 410.343 171.042Z" fill="#FFF6DC"/>
<path fill-rule="evenodd" clip-rule="evenodd" d="M505.601 113.418L505.536 113.36L488.191 97.9713V113.36V124.035V144.423C486.549 146.064 485.23 147.483 484.091 148.706C478.584 154.626 477.321 155.984 464.281 155.984C470.379 154.059 474.512 140.781 474.512 132.958C474.512 122.985 462.974 108.157 445.025 113.418C424.873 118.815 433.703 149.714 441.732 155.984C438.224 163.736 410.343 171.042 410.343 171.042C416.799 173.139 435.048 175.506 456.4 168.202H468.277C468.277 168.202 450.144 186.373 442.813 188.7C442.922 188.7 443.082 188.704 443.289 188.71C447.25 188.822 468.533 189.422 488.191 168.202V194.586C498.71 191.519 504.18 184.033 505.601 180.674V124.035V113.418ZM449.678 142.651C450.306 142.894 454.801 140.804 456.4 136.692C457.998 132.581 456.456 128.145 455.466 127.761C454.477 127.377 450.343 129.608 448.745 133.719C447.146 137.831 448.745 142.288 449.678 142.651Z" fill="#FFF6DC"/>
<path d="M488.191 194.586L505.601 204.841V180.674C504.18 184.033 498.71 191.519 488.191 194.586Z" fill="#FFF6DC"/>
<path d="M522.259 97.339L536.076 109.894C530.539 84.0631 520.723 68.0762 511.991 62.7236C517.434 66.617 520.25 73.2777 521.708 79.8041C523.008 85.6183 522.215 93.7893 522.259 97.339Z" fill="#D6D6D6"/>
<path fill-rule="evenodd" clip-rule="evenodd" d="M466.731 106.512C466.731 106.512 471.372 76.8367 486.502 64.5381C490.889 60.9721 496.158 58.8671 502.452 59.3698C503.176 59.4277 503.875 59.5179 504.55 59.6384C507.459 60.1576 509.916 61.2396 511.991 62.7236C520.723 68.0762 530.539 84.0631 536.076 109.894C536.076 105.215 536.804 94.8047 535.556 87.2164C532.72 69.9649 524.253 49.8224 499.207 47.8355C464.161 53.5733 462.953 89.3441 466.731 106.512Z" fill="#FFF6DC"/>
<path d="M446.764 93.874L466.731 106.512C462.953 89.3441 464.161 53.5733 499.207 47.8355C486.249 46.8075 476.08 51.6604 468.289 58.5608C452.875 72.2112 446.764 93.874 446.764 93.874Z" fill="#D4D4D4"/>
<path fill-rule="evenodd" clip-rule="evenodd" d="M281.989 119.103C285.907 122.997 289.953 127.013 294.103 131.129C370.811 207.195 483.218 317.227 483.218 317.227L559.512 241.763C563.791 237.517 567.717 233.639 571.829 229.578C575.946 225.511 580.248 221.261 585.277 216.275L588.952 212.631C605.08 196.641 617.162 184.662 631.312 170.445C648.903 152.32 680.053 120.342 680.053 120.342C680.053 120.342 694.204 106.512 680.053 92.1655C648.543 60.2223 579.353 0.0672115 484.473 0.00640046C417.57 -0.0371578 363.89 26.8769 326.114 54.2773C307.385 67.8626 292.566 81.5674 281.983 92.1655C272.388 101.774 272.358 109.531 281.989 119.103ZM499.207 47.8355C524.253 49.8224 532.72 69.9649 535.556 87.2164C536.804 94.8047 536.076 105.215 536.076 109.894L522.259 97.339C522.215 93.7893 523.008 85.6183 521.708 79.8041C520.25 73.2777 517.434 66.617 511.991 62.7236C509.241 61.0384 506.687 60.0721 504.55 59.6384C503.875 59.5179 503.176 59.4277 502.452 59.3698C496.158 58.8671 490.889 60.9721 486.502 64.5381C471.372 76.8367 466.731 106.512 466.731 106.512L446.764 93.874C446.764 93.874 452.875 72.2112 468.289 58.5608C476.08 51.6604 486.249 46.8075 499.207 47.8355ZM522.259 97.339L539.824 113.3V113.36H551.586L543.01 124.035H539.824V173.441V205.473L522.259 194.301V124.035H505.601V180.674V204.841L488.191 194.586V168.202C482.373 178.903 458.207 198.419 458.207 198.419C458.207 198.419 448.565 191.632 442.813 188.7C450.144 186.373 468.277 168.202 468.277 168.202H456.4L426.356 181.811L410.343 171.042C410.343 171.042 438.224 163.736 441.732 155.984C433.703 149.714 424.873 118.815 445.025 113.418C462.974 108.157 474.512 122.985 474.512 132.958C474.512 140.781 470.379 154.059 464.281 155.984C477.321 155.984 478.584 154.626 484.091 148.706C485.23 147.483 486.549 146.064 488.191 144.423V124.035H473.575L482.151 113.36H488.191V97.9713L505.536 113.36H522.259V97.339Z" fill="url(#paint3_linear_747_1319)"/>
</g>
<defs>
<linearGradient id="paint0_linear_747_1319" x1="1118.05" y1="546.909" x2="677.075" y2="-15.0005" gradientUnits="userSpaceOnUse">
<stop stop-color="#CEA33D"/>
<stop offset="1" stop-color="#6633CC"/>
</linearGradient>
<linearGradient id="paint1_linear_747_1319" x1="55.0553" y1="248.869" x2="701.53" y2="232.68" gradientUnits="userSpaceOnUse">
<stop offset="0.263639" stop-color="#F9B90F"/>
<stop offset="1" stop-color="#DC9320"/>
</linearGradient>
<linearGradient id="paint2_linear_747_1319" x1="315.154" y1="202.92" x2="455.542" y2="244.041" gradientUnits="userSpaceOnUse">
<stop stop-color="#F07730"/>
<stop offset="1" stop-color="#F99F0F"/>
</linearGradient>
<linearGradient id="paint3_linear_747_1319" x1="523.073" y1="190.006" x2="794.589" y2="-8.40222" gradientUnits="userSpaceOnUse">
<stop stop-color="#6633CC"/>
<stop offset="1" stop-color="#29A0AB"/>
</linearGradient>
</defs>
</svg>
