<svg width="189" height="58" viewBox="0 0 189 58" fill="none" xmlns="http://www.w3.org/2000/svg">
<path d="M50.9874 22.0977L38.9009 34.2241L26.7078 22.205C22.4591 17.9936 15.5906 18.024 11.3792 22.2727L27.7706 38.5199L31.0637 41.7841C31.1145 41.8344 31.1656 41.8841 31.2171 41.9332C32.0143 42.6928 32.9072 43.3128 33.8596 43.7913C35.4468 44.5888 37.1988 44.9935 38.9467 44.9975C41.7443 44.9674 44.5438 43.9102 46.6524 41.865C46.7035 41.8154 46.7542 41.7653 46.8046 41.7145L50.4109 38.0762L66.316 22.03C62.0673 17.8187 55.1987 17.849 50.9874 22.0977Z" fill="url(#paint0_linear_969_778)"/>
<path d="M50.9874 22.0977L38.9009 34.2241L26.7078 22.205C22.4591 17.9936 15.5906 18.024 11.3792 22.2727L27.7706 38.5199L31.0637 41.7841C31.1145 41.8344 31.1656 41.8841 31.2171 41.9332C32.0143 42.6928 32.9072 43.3128 33.8596 43.7913C35.4468 44.5888 37.1988 44.9935 38.9467 44.9975C41.7443 44.9674 44.5438 43.9102 46.6524 41.865C46.7035 41.8154 46.7542 41.7653 46.8046 41.7145L50.4109 38.0762L66.316 22.03C62.0673 17.8187 55.1987 17.849 50.9874 22.0977Z" fill="url(#paint1_linear_969_778)"/>
<path fill-rule="evenodd" clip-rule="evenodd" d="M42.2433 18.1301C42.0531 16.9724 41.4041 15.7549 39.9783 15.6417C39.2406 15.5831 38.6366 15.8595 38.193 16.2525C37.3155 17.0299 36.9676 18.2637 36.9676 18.2637L38.1116 19.0317C38.1116 19.0317 38.378 17.352 39.2394 16.6516C39.404 16.5177 39.8393 16.4201 40.0453 16.4709C40.0865 16.4742 40.124 16.479 40.1648 16.4862C40.3445 16.5235 40.4256 16.5556 40.5821 16.6516C40.892 16.8733 41.0602 17.1056 41.1741 17.4693C41.2086 17.6685 41.2631 18.2589 41.2655 18.4611L42.2729 19.4217C42.2729 19.1552 42.3144 18.5623 42.2433 18.1301ZM27.5869 19.7007C27.8099 19.9225 28.0403 20.1512 28.2766 20.3856C28.0202 20.1549 27.7891 19.926 27.5869 19.7007ZM42.2729 19.4217L41.2655 18.4611V19.3736H40.3135L39.3261 18.4971V19.3736H38.9822L38.494 19.9816H39.3261V21.1428C39.2326 21.2363 39.1574 21.317 39.0926 21.3867C38.7791 21.7239 38.7072 21.8012 37.9648 21.8012C38.312 21.6916 38.5473 20.9354 38.5473 20.4898C38.5473 19.9218 37.8904 19.0772 36.8686 19.3769C35.7213 19.6843 36.224 21.4441 36.6811 21.8012C36.4814 22.2427 34.8941 22.6589 34.8941 22.6589L35.8057 23.2722L37.5161 22.4971H38.1923C38.1923 22.4971 37.16 23.5321 36.7426 23.6646C37.0701 23.8316 37.619 24.2181 37.619 24.2181C37.619 24.2181 38.9948 23.1066 39.3261 22.4971V23.9998L40.3172 24.5839V23.2075V19.9816H41.2655V23.9836L42.2655 24.6199V22.7955V19.9816H42.4469L42.9351 19.3736L42.2729 19.4217Z" fill="#6633CC"/>
<path fill-rule="evenodd" clip-rule="evenodd" d="M27.5869 19.7007C27.8099 19.9225 28.0403 20.1512 28.2766 20.3856C28.0202 20.1549 27.7891 19.926 27.5869 19.7007Z" fill="url(#paint2_linear_969_778)"/>
<path fill-rule="evenodd" clip-rule="evenodd" d="M27.5869 19.7007C27.8099 19.9225 28.0403 20.1512 28.2766 20.3856C28.0202 20.1549 27.7891 19.926 27.5869 19.7007Z" fill="#6633CC"/>
<path fill-rule="evenodd" clip-rule="evenodd" d="M42.2729 19.4217L41.2655 18.4611V19.3736V19.9816V23.9836C42.0012 23.7685 42.2387 23.1019 42.2655 22.7955V19.9816L42.2729 19.4217Z" fill="#FFF6DC"/>
<path d="M41.2655 23.9836L42.2655 24.6199V22.7955C42.2387 23.1019 42.0012 23.7685 41.2655 23.9836Z" fill="#FFF6DC"/>
<path d="M38.9822 19.3736H39.3261H40.3135H41.2655L42.2729 19.4217L42.9351 19.3736L42.4469 19.9816H42.2655H41.2655H40.3172H39.3261H38.494L38.9822 19.3736Z" fill="#FFF6DC"/>
<path d="M36.7426 23.6646C37.0701 23.8316 37.619 24.2181 37.619 24.2181C37.619 24.2181 38.9948 23.1066 39.3261 22.4971C38.2069 23.7057 37 23.636 36.7745 23.6296C36.7628 23.6293 36.7489 23.6646 36.7426 23.6646Z" fill="#FFF6DC"/>
<path d="M34.8941 22.6589L35.8057 23.2722L37.5161 22.4971C36.3006 22.9131 35.2617 22.7783 34.8941 22.6589Z" fill="#FFF6DC"/>
<path fill-rule="evenodd" clip-rule="evenodd" d="M40.322 19.3413L40.3135 19.3736L39.3261 18.4971V19.3736V19.9816V21.1428C39.2326 21.2363 39.1574 21.317 39.0926 21.3867C38.7791 21.7239 38.7072 21.8012 37.9648 21.8012C38.312 21.6916 38.5473 20.9354 38.5473 20.4898C38.5473 19.9218 37.8904 19.0772 36.8686 19.3769C35.7213 19.6843 36.224 21.4441 36.6811 21.8012C36.4814 22.2427 34.8941 22.6589 34.8941 22.6589C35.2617 22.7783 36.3006 22.9131 37.5161 22.4971H38.1923C38.1923 22.4971 37.16 23.5321 36.7426 23.6646C36.7489 23.6646 36.7628 23.6293 36.7745 23.6296C37 23.636 38.2069 23.7057 39.3261 22.4971V23.9998C39.9249 23.8251 40.2363 23.3988 40.3172 23.2075V19.9816L40.322 19.3413ZM37.1383 21.0063C37.174 21.0201 37.4299 20.9011 37.5209 20.6669C37.6119 20.4327 37.5241 20.1801 37.4678 20.1582C37.4115 20.1363 37.1761 20.2634 37.0852 20.4976C36.9942 20.7317 37.0851 20.9856 37.1383 21.0063Z" fill="#FFF6DC"/>
<path d="M39.3261 23.9998L40.3172 24.5839V23.2075C40.2363 23.3988 39.9249 23.8251 39.3261 23.9998Z" fill="#FFF6DC"/>
<path d="M41.2655 18.4611L42.2729 19.4217C41.9577 17.9505 41.0793 16.9564 40.5821 16.6516C40.892 16.8733 41.0602 17.1056 41.1741 17.4693C41.2086 17.6685 41.2631 18.2589 41.2655 18.4611Z" fill="#FFF6DC"/>
<path fill-rule="evenodd" clip-rule="evenodd" d="M38.1116 19.0317C38.1116 19.0317 38.378 17.352 39.2394 16.6516C39.404 16.5177 39.8393 16.4201 40.0453 16.4709C40.0865 16.4742 40.124 16.479 40.1648 16.4862C40.3087 16.5055 40.464 16.567 40.5821 16.6516C41.0793 16.9564 41.9577 17.9505 42.2729 19.4217C42.2729 19.1552 42.3144 18.5623 42.2433 18.1301C42.0531 16.9724 41.4041 15.7549 39.9783 15.6417C37.9831 15.9685 37.8966 18.0539 38.1116 19.0317Z" fill="#FFF6DC"/>
<path d="M36.9676 18.2637L38.1116 19.0317C37.8966 18.0539 37.9831 15.9685 39.9783 15.6417C39.2406 15.5831 38.6366 15.8595 38.193 16.2525C37.3155 17.0299 36.9676 18.2637 36.9676 18.2637Z" fill="#D4D4D4"/>
<path fill-rule="evenodd" clip-rule="evenodd" d="M27.5869 19.7007C27.8099 19.9225 28.0403 20.1512 28.2766 20.3856C32.6435 24.718 39.0429 30.9849 39.0429 30.9849L43.3864 26.6868C43.63 26.445 43.8535 26.2241 44.0875 25.9928C44.3219 25.7611 44.5669 25.5191 44.8532 25.2351L45.0624 25.0276C45.9806 24.1168 46.6684 23.4346 47.4739 22.6248C48.4754 21.5926 50.2488 19.7712 50.2488 19.7712C50.2488 19.7712 51.0544 18.9835 50.2488 18.1664C48.4549 16.3471 44.5159 12.9209 39.1143 12.9175C35.3055 12.915 32.2495 14.4479 30.099 16.0085C29.0327 16.7822 28.189 17.5628 27.5866 18.1664C27.0403 18.7137 27.0386 19.1555 27.5869 19.7007ZM39.9783 15.6417C41.4041 15.7549 42.0531 16.9724 42.2433 18.1301C42.3144 18.5623 42.2729 19.1552 42.2729 19.4217L41.2655 18.4611C41.2631 18.2589 41.2086 17.6685 41.1741 17.4693C41.0602 17.1056 40.892 16.8733 40.5821 16.6516C40.4256 16.5556 40.3445 16.5235 40.1648 16.4862C40.124 16.479 40.0865 16.4742 40.0453 16.4709C39.8393 16.4201 39.404 16.5177 39.2394 16.6516C38.378 17.352 38.1116 19.0317 38.1116 19.0317L36.9676 18.2637C36.9676 18.2637 37.3155 17.0299 38.193 16.2525C38.6366 15.8595 39.2406 15.5831 39.9783 15.6417ZM41.2655 18.4611L42.2729 19.4217L42.9351 19.3736L42.4469 19.9816H42.2655V22.7955V24.6199L41.2655 23.9836V19.9816H40.3172V23.2075V24.5839L39.3261 23.9998V22.4971C38.9948 23.1066 37.619 24.2181 37.619 24.2181C37.619 24.2181 37.0701 23.8316 36.7426 23.6646C37.16 23.5321 38.1923 22.4971 38.1923 22.4971H37.5161L35.8057 23.2722L34.8941 22.6589C34.8941 22.6589 36.4814 22.2427 36.6811 21.8012C36.224 21.4441 35.7213 19.6843 36.8686 19.3769C37.8904 19.0772 38.5473 19.9218 38.5473 20.4898C38.5473 20.9354 38.312 21.6916 37.9648 21.8012C38.7072 21.8012 38.7791 21.7239 39.0926 21.3867C39.1574 21.317 39.2326 21.2363 39.3261 21.1428V19.9816H38.494L38.9822 19.3736H39.3261V18.4971L40.3135 19.3736H41.2655V18.4611Z" fill="url(#paint3_linear_969_778)"/>
<path d="M85.5637 26.2163H77.097V14.017H79.0635V24.4501H85.5637V26.2163ZM89.2095 26.3984C87.5889 26.3984 86.3326 25.5608 86.3326 23.9767C86.3326 22.4837 87.4251 21.7007 89.3551 21.4276L92.5233 20.9542V20.4626C92.5233 19.1152 91.9042 18.7146 90.484 18.7146C89.0456 18.7146 88.4811 19.1698 88.4811 20.3716V20.6447H86.5875V20.4626C86.5875 18.4415 88.1716 16.9849 90.5933 16.9849C93.1242 16.9849 94.3987 18.5143 94.3987 20.7175V26.2163H92.5779V24.7961H92.4869C91.9589 25.6519 90.921 26.3984 89.2095 26.3984ZM88.2444 23.8311C88.2444 24.5412 88.6996 24.8325 89.8467 24.8325C91.1213 24.8325 92.5233 24.3227 92.5233 22.5019V22.338L89.6464 22.775C88.6086 22.9207 88.2444 23.1574 88.2444 23.8311ZM97.345 26.2163H95.1236L98.3646 21.6643V21.5369L95.1236 17.167H97.4178L99.8577 20.5172H99.9851L102.407 17.167H104.628L101.387 21.6097V21.7554L104.628 26.2163H102.334L99.8941 22.7568H99.7666L97.345 26.2163ZM107.477 26.2163H105.51V17.167H107.313V18.8603H107.386C107.804 17.8953 108.751 16.9849 110.481 16.9849C112.065 16.9849 113.048 17.7132 113.485 18.8603H113.54C113.959 17.9135 114.887 16.9849 116.672 16.9849C119.002 16.9849 120.04 18.4779 120.04 20.5354V26.2163H118.074V20.9724C118.074 19.3519 117.582 18.6782 115.943 18.6782C114.45 18.6782 113.758 19.2973 113.758 20.9542V26.2163H111.792V20.9724C111.792 19.3519 111.3 18.6782 109.662 18.6782C108.168 18.6782 107.477 19.2973 107.477 20.936V26.2163ZM123.761 16.0199H121.813L121.795 14.017H123.761V16.0199ZM123.779 26.2163H121.813V17.1123H123.779V26.2163ZM134.006 26.3984C130.492 26.3984 128.962 24.7779 128.962 22.4291V22.1195H130.892V22.3198C130.892 23.8311 131.53 24.5958 134.079 24.5958C135.881 24.5958 136.537 24.1042 136.537 22.9753C136.537 21.8646 136.173 21.464 134.297 21.0817L132.221 20.6629C130.128 20.2623 128.999 19.2427 128.999 17.3126C128.999 15.51 130.401 13.8349 133.551 13.8349C136.919 13.8349 138.266 15.7285 138.266 17.8953V18.1138H136.336V17.9135C136.336 16.4204 135.681 15.6375 133.496 15.6375C131.693 15.6375 130.965 16.1473 130.965 17.2216C130.965 18.3323 131.457 18.6418 133.132 19.006L135.208 19.443C137.502 19.9164 138.503 21.0635 138.503 22.9025C138.503 24.8143 137.119 26.3984 134.006 26.3984ZM141.972 26.2163H140.006V14.017H141.972V18.6782H142.045C142.464 17.8589 143.429 16.9849 145.067 16.9849C147.434 16.9849 148.436 18.5326 148.436 20.5172V26.2163H146.469V20.9724C146.469 19.3519 145.96 18.6782 144.303 18.6782C142.7 18.6782 141.972 19.2973 141.972 21.0088V26.2163ZM152.339 26.2163H150.372V17.1123H152.175V18.5508H152.266C152.63 17.7132 153.467 16.9849 154.797 16.9849C156.69 16.9849 157.419 18.3687 157.419 20.062V20.6629H155.452V20.2987C155.452 19.097 155.106 18.66 153.959 18.66C152.776 18.66 152.339 19.1152 152.339 20.3169V26.2163ZM162.7 26.3984C159.714 26.3984 158.312 24.5048 158.312 21.6825C158.312 18.8785 159.987 16.9849 162.682 16.9849C165.122 16.9849 166.833 18.4415 166.833 20.9178C166.833 21.3912 166.778 21.8828 166.724 22.1559H160.151C160.224 23.8129 160.824 24.6504 162.718 24.6504C164.229 24.6504 164.812 24.1406 164.812 23.3212V23.1756H166.76V23.3395C166.76 25.1967 165.14 26.3984 162.7 26.3984ZM162.645 18.6418C160.934 18.6418 160.278 19.443 160.169 20.845H164.958C165.03 19.2973 164.193 18.6418 162.645 18.6418ZM172.515 26.3984C169.529 26.3984 168.127 24.5048 168.127 21.6825C168.127 18.8785 169.802 16.9849 172.497 16.9849C174.937 16.9849 176.648 18.4415 176.648 20.9178C176.648 21.3912 176.594 21.8828 176.539 22.1559H169.966C170.039 23.8129 170.64 24.6504 172.533 24.6504C174.045 24.6504 174.627 24.1406 174.627 23.3212V23.1756H176.575V23.3395C176.575 25.1967 174.955 26.3984 172.515 26.3984ZM172.46 18.6418C170.749 18.6418 170.093 19.443 169.984 20.845H174.773C174.846 19.2973 174.008 18.6418 172.46 18.6418Z" fill="url(#paint4_linear_969_778)"/>
<path d="M79.1215 42.9351H76.9746V29.6165H79.1215V42.9351ZM83.4879 42.9351H81.3411V33.0555H83.309V34.9042H83.3885C83.8457 33.8506 84.8993 32.8567 86.8275 32.8567C89.3918 32.8567 90.5448 34.4867 90.5448 36.733V42.9351H88.3979V37.2101C88.3979 35.4409 87.8413 34.7054 86.0324 34.7054C84.2831 34.7054 83.4879 35.3812 83.4879 37.2299V42.9351ZM97.9565 42.9351H95.253L91.2972 33.0555H93.6826L96.565 40.8876H96.7042L99.6064 33.0555H101.932L97.9565 42.9351ZM106.952 43.1338C103.692 43.1338 102.161 41.0665 102.161 37.9853C102.161 34.924 103.99 32.8567 106.932 32.8567C109.596 32.8567 111.465 34.447 111.465 37.1504C111.465 37.6673 111.405 38.204 111.345 38.5022H104.169C104.249 40.3111 104.905 41.2255 106.972 41.2255C108.622 41.2255 109.258 40.6689 109.258 39.7744V39.6154H111.385V39.7943C111.385 41.8219 109.616 43.1338 106.952 43.1338ZM106.892 34.6656C105.024 34.6656 104.308 35.5403 104.189 37.0709H109.417C109.497 35.3812 108.582 34.6656 106.892 34.6656ZM117.429 43.1338C114.547 43.1338 113.036 42.0008 113.036 39.5955V39.5557H115.104V39.9135C115.104 40.987 115.581 41.3845 117.469 41.3845C119.059 41.3845 119.358 41.0267 119.358 40.2912C119.358 39.4961 118.88 39.2575 117.429 38.9991L115.899 38.7407C114.129 38.4226 113.016 37.6275 113.016 35.8384C113.016 34.0494 114.487 32.8567 117.071 32.8567C119.397 32.8567 121.147 34.0096 121.147 36.2559V36.4348H119.099V36.1963C119.099 35.2819 118.781 34.6259 117.012 34.6259C115.441 34.6259 115.064 35.0433 115.064 35.7987C115.064 36.5541 115.422 36.7727 116.813 37.051L118.483 37.3691C120.391 37.7468 121.385 38.6016 121.385 40.2316C121.385 42.0604 119.934 43.1338 117.429 43.1338ZM127.135 42.9351C124.929 42.9351 123.776 42.12 123.776 39.8937V34.8445H122.126V33.0555H123.815L124.273 30.6104H125.923V33.0555H128.904V34.8445H125.923V39.7943C125.923 40.8279 126.36 41.0068 127.692 41.0068H128.904V42.7562C128.487 42.8555 127.811 42.9351 127.135 42.9351ZM132.524 42.9351H130.377V33.0555H132.345V34.9042H132.425C132.882 33.8506 133.916 32.8567 135.804 32.8567C137.533 32.8567 138.607 33.6518 139.084 34.9042H139.144C139.601 33.8705 140.615 32.8567 142.563 32.8567C145.107 32.8567 146.24 34.4867 146.24 36.733V42.9351H144.093V37.2101C144.093 35.4409 143.557 34.7054 141.768 34.7054C140.137 34.7054 139.382 35.3812 139.382 37.1902V42.9351H137.235V37.2101C137.235 35.4409 136.699 34.7054 134.909 34.7054C133.279 34.7054 132.524 35.3812 132.524 37.1703V42.9351ZM152.649 43.1338C149.389 43.1338 147.859 41.0665 147.859 37.9853C147.859 34.924 149.687 32.8567 152.629 32.8567C155.293 32.8567 157.162 34.447 157.162 37.1504C157.162 37.6673 157.102 38.204 157.042 38.5022H149.866C149.946 40.3111 150.602 41.2255 152.669 41.2255C154.319 41.2255 154.955 40.6689 154.955 39.7744V39.6154H157.082V39.7943C157.082 41.8219 155.313 43.1338 152.649 43.1338ZM152.59 34.6656C150.721 34.6656 150.005 35.5403 149.886 37.0709H155.114C155.194 35.3812 154.279 34.6656 152.59 34.6656ZM161.022 42.9351H158.875V33.0555H160.843V34.9042H160.922C161.379 33.8506 162.433 32.8567 164.361 32.8567C166.926 32.8567 168.079 34.4867 168.079 36.733V42.9351H165.932V37.2101C165.932 35.4409 165.375 34.7054 163.566 34.7054C161.817 34.7054 161.022 35.3812 161.022 37.2299V42.9351ZM174.152 42.9351C171.946 42.9351 170.793 42.12 170.793 39.8937V34.8445H169.143V33.0555H170.833L171.29 30.6104H172.94V33.0555H175.922V34.8445H172.94V39.7943C172.94 40.8279 173.377 41.0068 174.709 41.0068H175.922V42.7562C175.504 42.8555 174.828 42.9351 174.152 42.9351Z" fill="url(#paint5_linear_969_778)"/>
<defs>
<linearGradient id="paint0_linear_969_778" x1="75.0177" y1="44.0309" x2="49.8991" y2="12.0379" gradientUnits="userSpaceOnUse">
<stop stop-color="#CEA33D"/>
<stop offset="1" stop-color="#6633CC"/>
</linearGradient>
<linearGradient id="paint1_linear_969_778" x1="14.5009" y1="27.056" x2="51.3049" y2="26.1347" gradientUnits="userSpaceOnUse">
<stop offset="0.263639" stop-color="#F9B90F"/>
<stop offset="1" stop-color="#DC9320"/>
</linearGradient>
<linearGradient id="paint2_linear_969_778" x1="29.475" y1="24.4745" x2="37.4678" y2="26.8146" gradientUnits="userSpaceOnUse">
<stop stop-color="#F07730"/>
<stop offset="1" stop-color="#F99F0F"/>
</linearGradient>
<linearGradient id="paint3_linear_969_778" x1="41.3119" y1="23.739" x2="56.7741" y2="12.445" gradientUnits="userSpaceOnUse">
<stop stop-color="#6633CC"/>
<stop offset="1" stop-color="#29A0AB"/>
</linearGradient>
<linearGradient id="paint4_linear_969_778" x1="75.3413" y1="20.2163" x2="177.341" y2="20.2163" gradientUnits="userSpaceOnUse">
<stop stop-color="#35115F"/>
<stop offset="1" stop-color="#9D29C6"/>
</linearGradient>
<linearGradient id="paint5_linear_969_778" x1="75.3408" y1="36.9351" x2="176.341" y2="36.9351" gradientUnits="userSpaceOnUse">
<stop stop-color="#35115F"/>
<stop offset="1" stop-color="#9D29C6"/>
</linearGradient>
</defs>
</svg>
